# xmcd
#
# Track frame offsets:
#	150
#	21616
#	36772
#	49401
#	67887
#	85297
#	102211
#	109188
#	130632
#	137500
#	153293
#	173635
#	189392
#	209159
#	228598
#	244949
#	256169
#
# Disc length: 3609 seconds
#
# Revision: 3
# Processed by: cddbd v1.4PL0 Copyright (c) Steve Scherf et al.
# Submitted via: EasyCDDAExtractor 5.0.6
#
DISCID=eb0e1711
DTITLE=ΘΑΛΑΣΣΙΝΟΣ ΑΝΔΡΕΑΤΟΣ - Ολα Πολύτιμα
DYEAR=2001
DGENRE=Country
TTITLE0=Ελα και φίλα
TTITLE1=Τα μεγάλα ποτάμια
TTITLE2=Το γράμμα
TTITLE3=Κράτα καρδούλα μου
TTITLE4=Να πιω από το ποτήρι σου
TTITLE5=Μεσ στα συντρίμια μου
TTITLE6=Ταξίμι
TTITLE7=Το κορμί σου το αλάνι
TTITLE8=Ταξίμι Χουσεϊνι
TTITLE9=Αχ κορμί ζωγραφιστό
TTITLE10=Ο,τι φεύγει από κοντά σου
TTITLE11=Αχ Φεγγάρι
TTITLE12=Ο αθάνατος
TTITLE13=Στης Χαλιμάς το περιβόλι
TTITLE14=Ολα πολύτιμα
TTITLE15=Στις φυλακές του Ρίου
TTITLE16=Χασάπικο της Σαλαμίνας
EXTD=
EXTT0=
EXTT1=
EXTT2=
EXTT3=
EXTT4=
EXTT5=
EXTT6=
EXTT7=
EXTT8=
EXTT9=
EXTT10=
EXTT11=
EXTT12=
EXTT13=
EXTT14=
EXTT15=
EXTT16=
PLAYORDER=
